Coordinates
version=1
nRows=16
nColumns=63
inDegrees=yes

Units are S.I. units (second, meters, Newtons, ...)
If the header above contains a line with 'inDegrees', this indicates whether rotational values are in degrees (yes) or radians (no).

endheader
time	pelvis_tilt	pelvis_list	pelvis_rotation	pelvis_tx	pelvis_ty	pelvis_tz	hip_flexion_r	hip_adduction_r	hip_rotation_r	knee_angle_r	knee_angle_r_beta	ankle_angle_r	subtalar_angle_r	mtp_angle_r	hip_flexion_l	hip_adduction_l	hip_rotation_l	knee_angle_l	knee_angle_l_beta	ankle_angle_l	subtalar_angle_l	mtp_angle_l	L5_S1_Flex_Ext	L5_S1_Lat_Bending	L5_S1_axial_rotation	L4_L5_Flex_Ext	L4_L5_Lat_Bending	L4_L5_axial_rotation	L3_L4_Flex_Ext	L3_L4_Lat_Bending	L3_L4_axial_rotation	L2_L3_Flex_Ext	L2_L3_Lat_Bending	L2_L3_axial_rotation	L1_L2_Flex_Ext	L1_L2_Lat_Bending	L1_L2_axial_rotation	L1_T12_Flex_Ext	L1_T12_Lat_Bending	L1_T12_axial_rotation	Abs_r3	Abs_r2	Abs_r1	Abs_t1	Abs_t2	neck_flexion	neck_bending	neck_rotation	arm_flex_r	arm_add_r	arm_rot_r	elbow_flex_r	pro_sup_r	wrist_flex_r	wrist_dev_r	arm_flex_l	arm_add_l	arm_rot_l	elbow_flex_l	pro_sup_l	wrist_flex_l	wrist_dev_l
1.083333	2.535820	-1.941473	93.381815	0.302614	0.899044	0.710125	-4.926180	4.289111	17.757228	0.885108	0.015448	21.760733	-6.903106	0.000000	-5.317966	-5.331201	10.495838	0.557358	0.009728	22.640242	-13.294378	0.000000	-0.510719	0.614983	2.427053	-0.948456	0.817928	2.578744	-0.839060	1.495271	2.578744	-0.583701	1.495271	2.123671	-0.474254	1.254074	1.971980	-0.291825	0.952609	1.820290	-3.648015	6.956816	13.498539	0.000000	0.000000	6.938661	-27.623344	-21.672564	-1.251498	-17.344066	38.617318	22.209038	64.435720	-13.126075	-7.182900	51.847894	-9.940358	-17.543915	149.884866	82.298201	5.411112	11.980669
1.100000	2.563147	-1.875794	93.020220	0.302931	0.898976	0.709474	-5.039242	4.287994	17.952181	0.905771	0.015809	21.925906	-6.647300	0.000000	-5.439514	-5.300631	10.037379	0.652043	0.011380	22.895076	-13.248094	0.000000	-0.519794	0.615920	2.456371	-0.965310	0.819173	2.609894	-0.853970	1.497547	2.609894	-0.594073	1.497547	2.149325	-0.482681	1.255983	1.995801	-0.297010	0.954060	1.842278	-3.712839	6.967406	13.661599	0.000000	0.000000	6.820947	-27.595696	-21.263992	-1.234934	-17.620004	38.996644	21.830942	63.197373	-13.741397	-8.068513	51.679268	-10.123266	-17.582289	149.883854	83.444534	5.225621	12.500935
1.116667	2.535573	-1.821686	92.669021	0.303301	0.898917	0.708784	-5.141878	4.237403	18.071555	0.955449	0.016676	22.099096	-6.309518	0.000000	-5.523737	-5.213307	9.518379	0.801939	0.013996	23.194702	-13.126505	0.000000	-0.526928	0.608726	2.489941	-0.978558	0.809605	2.645562	-0.865690	1.480056	2.645562	-0.602226	1.480056	2.178698	-0.489305	1.241313	2.023077	-0.301087	0.942916	1.867456	-3.763793	6.886027	13.848305	0.000000	0.000000	6.658872	-27.500676	-20.913076	-1.092769	-17.735505	41.128144	21.159881	60.731761	-14.145476	-8.966240	51.576162	-10.330974	-17.562772	149.882961	84.235859	5.139753	13.054199
1.133333	2.471899	-1.780855	92.336495	0.303678	0.898858	0.708095	-5.225061	4.155082	18.098547	1.037783	0.018113	22.277399	-5.872131	0.000000	-5.554153	-5.085550	9.001695	1.027649	0.017936	23.528302	-13.011018	0.000000	-0.531801	0.596432	2.526463	-0.987607	0.793254	2.684366	-0.873696	1.450164	2.684366	-0.607795	1.450164	2.210655	-0.493830	1.216244	2.052751	-0.303871	0.923873	1.894847	-3.798600	6.746957	14.051427	0.000000	0.000000	6.458235	-27.354801	-20.605195	-0.846404	-17.713533	44.380061	20.330723	57.386006	-14.311504	-9.857529	51.537810	-10.548977	-17.486949	149.882248	84.672819	5.107153	13.656215
1.150000	2.377305	-1.743814	92.028230	0.304054	0.898803	0.707412	-5.295839	4.048088	18.045210	1.150515	0.020080	22.457252	-5.379931	0.000000	-5.540070	-4.927587	8.439510	1.325641	0.023137	23.901097	-12.825297	0.000000	-0.535121	0.580237	2.561999	-0.993774	0.771715	2.722124	-0.879151	1.410789	2.722124	-0.611590	1.410789	2.241749	-0.496914	1.183220	2.081624	-0.305768	0.898787	1.921499	-3.822318	6.563758	14.249069	0.000000	0.000000	6.228518	-27.157644	-20.305495	-0.487817	-17.559341	48.865565	19.321202	53.207529	-14.295799	-10.676823	51.553668	-10.778953	-17.406573	149.881667	84.842181	5.183735	14.260543
1.166667	2.270966	-1.716623	91.748667	0.304418	0.898736	0.706765	-5.339926	3.936326	17.915951	1.297142	0.022639	22.636038	-4.843097	0.000000	-5.468277	-4.759855	7.856152	1.704897	0.029756	24.302598	-12.605705	0.000000	-0.535479	0.561981	2.598403	-0.994439	0.747434	2.760803	-0.879739	1.366399	2.760803	-0.611999	1.366399	2.273602	-0.497246	1.145991	2.111202	-0.305973	0.870508	1.948802	-3.824875	6.357236	14.451536	0.000000	0.000000	5.966781	-26.890266	-20.055239	-0.054611	-17.273077	54.163245	18.154868	48.561430	-14.099887	-11.422406	51.618354	-10.987873	-17.300071	149.880907	84.841164	5.347678	14.877582
1.183333	2.144666	-1.692805	91.506272	0.304735	0.898665	0.706125	-5.365261	3.809211	17.706444	1.471027	0.025674	22.842447	-4.259831	0.000000	-5.350953	-4.574761	7.245824	2.157858	0.037662	24.722818	-12.334189	0.000000	-0.533088	0.541479	2.630272	-0.989998	0.720167	2.794664	-0.875810	1.316553	2.794664	-0.609266	1.316553	2.301488	-0.495026	1.104184	2.137096	-0.304607	0.838751	1.972704	-3.807795	6.125321	14.628782	0.000000	0.000000	5.671402	-26.574898	-19.852997	0.430998	-16.866050	60.319805	16.842911	43.698785	-13.839089	-11.989748	51.695213	-11.192891	-17.199070	149.879177	84.577628	5.671181	15.510423
1.200000	2.037932	-1.653817	91.290117	0.305024	0.898610	0.705528	-5.385195	3.709611	17.517475	1.666327	0.029083	23.030251	-3.765468	0.000000	-5.206008	-4.418172	6.603281	2.686845	0.046894	25.174238	-12.001668	0.000000	-0.529655	0.523908	2.659838	-0.983622	0.696797	2.826078	-0.870170	1.273829	2.826078	-0.605343	1.273829	2.327358	-0.491838	1.068352	2.161118	-0.302645	0.811533	1.994878	-3.783273	5.926548	14.793219	0.000000	0.000000	5.330048	-26.236307	-19.675033	0.964030	-16.366986	67.289382	15.372413	38.811659	-13.526135	-12.404490	51.768223	-11.349477	-17.150169	149.876732	84.529759	6.142737	16.181332
1.216667	1.948890	-1.603385	91.090588	0.305267	0.898577	0.704960	-5.395879	3.633521	17.505374	1.880098	0.032814	23.160900	-3.577546	0.000000	-5.039412	-4.283587	5.923211	3.278793	0.057226	25.637701	-11.621013	0.000000	-0.524541	0.509575	2.686607	-0.974125	0.677735	2.854520	-0.861768	1.238982	2.854520	-0.599498	1.238982	2.350781	-0.487089	1.039126	2.182868	-0.299723	0.789332	2.014956	-3.746742	5.764419	14.942104	0.000000	0.000000	4.946795	-25.906808	-19.525650	1.543152	-15.809997	75.108902	13.778325	33.983691	-13.298627	-12.596905	51.797063	-11.475419	-17.098541	149.873294	84.658077	6.634015	16.811991
1.233333	1.880662	-1.539907	90.909920	0.305490	0.898562	0.704424	-5.396918	3.584706	17.563378	2.113930	0.036895	23.274779	-3.540772	0.000000	-4.850134	-4.178289	5.221298	3.940936	0.068782	26.110539	-11.206198	0.000000	-0.518991	0.498745	2.716268	-0.963818	0.663332	2.886034	-0.852650	1.212650	2.886034	-0.593155	1.212650	2.376734	-0.481935	1.017042	2.206967	-0.296551	0.772557	2.037201	-3.707101	5.641909	15.107066	0.000000	0.000000	4.543441	-25.568261	-19.408266	2.115090	-15.199036	83.365958	12.120532	29.512502	-13.112373	-12.578482	51.793612	-11.526524	-17.084561	149.869231	84.929453	7.315587	17.540560
1.250000	1.838917	-1.456556	90.732697	0.305684	0.898578	0.703936	-5.398040	3.565822	17.729867	2.360139	0.041192	23.355560	-3.684506	0.000000	-4.657062	-4.102264	4.538252	4.649742	0.081153	26.565321	-10.835675	0.000000	-0.515385	0.492781	2.753781	-0.957121	0.655399	2.925892	-0.846726	1.198148	2.925892	-0.589033	1.198148	2.409558	-0.478586	1.004879	2.237447	-0.294491	0.763318	2.065336	-3.681342	5.574437	15.315704	0.000000	0.000000	4.136803	-25.226005	-19.302444	2.639298	-14.551556	91.743211	10.462898	25.661611	-12.982607	-12.314330	51.752455	-11.494665	-17.052687	149.865134	85.288826	8.027263	18.321337
1.266667	1.811312	-1.358069	90.535335	0.305901	0.898635	0.703492	-5.394067	3.564394	18.002036	2.622106	0.045764	23.413170	-3.973348	0.000000	-4.465682	-4.042492	3.818064	5.390155	0.094076	27.006723	-10.458515	0.000000	-0.513865	0.489842	2.803365	-0.954299	0.651489	2.978576	-0.844229	1.191001	2.978576	-0.587296	1.191001	2.452945	-0.477175	0.998885	2.277734	-0.293622	0.758765	2.102524	-3.670487	5.541185	15.591478	0.000000	0.000000	3.698664	-24.893946	-19.233129	3.221262	-13.944457	100.921023	8.739178	21.426520	-12.969334	-12.034546	51.675022	-11.386028	-17.039222	149.861511	85.691725	8.837878	19.109028
1.283333	1.805279	-1.241082	90.335660	0.306115	0.898734	0.703061	-5.395962	3.589184	18.393230	2.892743	0.050488	23.423924	-4.441469	0.000000	-4.285590	-4.005474	3.142950	6.147514	0.107294	27.421900	-10.168811	0.000000	-0.514929	0.491416	2.865953	-0.956274	0.653583	3.045075	-0.845976	1.194829	3.045075	-0.588512	1.194829	2.507709	-0.478163	1.002095	2.328587	-0.294230	0.761203	2.149465	-3.678083	5.558996	15.939570	0.000000	0.000000	3.221974	-24.588393	-19.187743	3.720024	-13.347435	109.770204	7.086230	17.695926	-12.977511	-11.627102	51.550155	-11.204269	-17.003621	149.858706	86.131239	9.544874	19.745630
1.300000	1.803706	-1.102383	90.116767	0.306372	0.898872	0.702645	-5.405953	3.625589	18.885868	3.178393	0.055473	23.415849	-5.057995	0.000000	-4.128532	-3.974530	2.505294	6.909835	0.120599	27.810779	-9.960970	0.000000	-0.520312	0.494582	2.947950	-0.966271	0.657795	3.132197	-0.854820	1.202528	3.132197	-0.594665	1.202528	2.579456	-0.483162	1.008553	2.395209	-0.297306	0.766108	2.210962	-3.716536	5.594816	16.395612	0.000000	0.000000	2.701454	-24.292121	-19.239407	4.102046	-12.764564	117.972594	5.566142	14.507776	-13.014021	-11.115263	51.407276	-10.951817	-16.964575	149.857090	86.529425	10.188874	20.159029
1.316667	1.790158	-0.944149	89.889587	0.306708	0.899077	0.702251	-5.418778	3.658780	19.311823	3.489328	0.060900	23.447335	-5.581536	0.000000	-3.992843	-3.938009	1.842617	7.672151	0.133904	28.200903	-9.713064	0.000000	-0.529322	0.496876	3.040656	-0.983004	0.660845	3.230697	-0.869624	1.208104	3.230697	-0.604962	1.208104	2.660574	-0.491529	1.013229	2.470533	-0.302455	0.769661	2.280492	-3.780896	5.620760	16.911219	0.000000	0.000000	2.128880	-24.029438	-19.353954	4.560200	-12.238786	126.505098	4.038385	10.619819	-13.013542	-10.831340	51.238116	-10.684484	-16.971971	149.856793	86.831996	10.755467	20.252382
1.333333	1.771314	-0.765991	89.685829	0.307062	0.899347	0.701846	-5.447693	3.697193	19.751859	3.807327	0.066450	23.474251	-6.177824	0.000000	-3.882649	-3.901553	1.278649	8.421559	0.146984	28.559141	-9.546627	0.000000	-0.540807	0.499440	3.138364	-1.004333	0.664256	3.334512	-0.888492	1.214339	3.334512	-0.618088	1.214339	2.746068	-0.502193	1.018459	2.549921	-0.309017	0.773633	2.353773	-3.862931	5.649769	17.454639	0.000000	0.000000	1.519815	-23.802958	-19.513903	4.945014	-11.760006	133.983385	2.677857	7.093651	-12.937587	-10.638833	51.026772	-10.430724	-16.999554	149.857579	87.084721	11.114829	19.950510
